<svg width="26" height="26" viewBox="0 0 26 26" fill="none" xmlns="http://www.w3.org/2000/svg">
<path d="M9.17213 1L4.82812 5.356" stroke="black" stroke-width="2" stroke-miterlimit="10" stroke-linecap="round" stroke-linejoin="round"/>
<path d="M16.8281 1L21.1721 5.356" stroke="black" stroke-width="2" stroke-miterlimit="10" stroke-linecap="round" stroke-linejoin="round"/>
<path d="M1 8.01999C1 5.8 2.188 5.62 3.664 5.62H22.336C23.812 5.62 25 5.8 25 8.01999C25 10.6 23.812 10.42 22.336 10.42H3.664C2.188 10.42 1 10.6 1 8.01999Z" stroke="black" stroke-width="2"/>
<path d="M10.3125 15.4V19.66" stroke="black" stroke-width="2" stroke-linecap="round"/>
<path d="M15.832 15.4V19.66" stroke="black" stroke-width="2" stroke-linecap="round"/>
<path d="M2.80078 10.6L4.49278 20.968C4.87678 23.296 5.80078 25 9.23278 25H16.4688C20.2008 25 20.7528 23.368 21.1848 21.112L23.2008 10.6" stroke="black" stroke-width="2" stroke-linecap="round"/>
</svg>
