<svg width="40" height="40" viewBox="0 0 40 40" fill="none" xmlns="http://www.w3.org/2000/svg">
<g clip-path="url(#clip0_202_1662)">
<path d="M3.81855 0.222656C1.85328 0.222656 0.222656 1.85328 0.222656 3.81855V36.1816C0.222656 38.1468 1.85328 39.7775 3.81855 39.7775H36.1816C38.1468 39.7775 39.7775 38.1468 39.7775 36.1816V3.81855C39.7775 1.85328 38.1468 0.222656 36.1816 0.222656H3.81855ZM2.94123 5.94123C2.94123 4.28438 4.28438 2.94123 5.94123 2.94123H34.353C36.0099 2.94123 37.353 4.28438 37.353 5.94123V34.353C37.353 36.0099 36.0099 37.353 34.353 37.353H26.8547V24.0454H31.5181L32.1924 18.6516H26.8547V15.1681C26.8547 13.5967 27.2426 12.5273 29.4955 12.5273H32.4171V7.63918C31.9191 7.57266 30.1881 7.47062 28.2032 7.47062C24.0607 7.47062 21.2361 9.96213 21.2361 14.6062V18.6516H16.5165V24.0454H21.2361V37.353H5.94123C4.28438 37.353 2.94123 36.0099 2.94123 34.353V5.94123Z" fill="black"/>
</g>
<defs>
<clipPath id="clip0_202_1662">
<rect width="40" height="40" fill="white"/>
</clipPath>
</defs>
</svg>
