<svg width="238" height="117" viewBox="0 0 238 117" fill="none" xmlns="http://www.w3.org/2000/svg">
<rect width="100" height="100" transform="translate(0 9)" fill="#F4F0F5"/>
<circle cx="50" cy="59" r="49" stroke="black" stroke-width="2"/>
<path d="M47.6374 62.12C47.0241 62.4 46.5174 62.8067 46.1174 63.34C45.7308 63.86 45.5374 64.4067 45.5374 64.98C45.5374 65.54 45.6574 66.0267 45.8974 66.44C46.1374 66.8533 46.4374 67.16 46.7974 67.36C47.4774 67.76 48.1441 67.96 48.7974 67.96C50.1708 67.96 51.3174 67.4133 52.2374 66.32L47.6374 62.12ZM48.7174 69.24C47.1841 69.24 45.9574 68.88 45.0374 68.16C44.1174 67.44 43.6574 66.4 43.6574 65.04C43.6574 64.1333 43.9374 63.34 44.4974 62.66C45.0708 61.98 45.7308 61.4733 46.4774 61.14C45.9841 60.5933 45.6241 60.0867 45.3974 59.62C45.1841 59.1533 45.0774 58.5933 45.0774 57.94C45.0774 57.02 45.4241 56.26 46.1174 55.66C46.8241 55.06 47.7841 54.76 48.9974 54.76C49.6508 54.76 50.2774 54.9 50.8774 55.18C51.4908 55.46 51.9708 55.7667 52.3174 56.1L51.9774 58.08C51.8308 58.1333 51.6441 58.16 51.4174 58.16L51.0374 58.14L50.5374 56.08C50.1508 55.9733 49.6374 55.92 48.9974 55.92C48.3574 55.92 47.8774 56.12 47.5574 56.52C47.2374 56.92 47.0774 57.32 47.0774 57.72C47.0774 58.12 47.1574 58.4933 47.3174 58.84C47.4908 59.1867 47.6641 59.4667 47.8374 59.68C48.0241 59.88 48.3374 60.2 48.7774 60.64C49.1908 61.0667 50.5908 62.5933 52.9774 65.22C53.4841 64.3267 53.7374 62.98 53.7374 61.18C53.7374 60.7933 53.7241 60.48 53.6974 60.24L52.0174 60.08C52.0174 59.7067 52.1308 59.3067 52.3574 58.88H56.9574L57.0174 59.58C56.4041 59.7933 55.7908 59.9533 55.1774 60.06C55.1641 60.8333 55.0308 61.8467 54.7774 63.1C54.5374 64.3533 54.2108 65.3 53.7974 65.94L56.3774 68.78C56.1641 69.1667 55.8974 69.36 55.5774 69.36L52.9774 67.12C52.4841 67.68 51.8108 68.1733 50.9574 68.6C50.1174 69.0267 49.3708 69.24 48.7174 69.24Z" fill="black"/>
<ellipse cx="23.8736" cy="61.2522" rx="13.0631" ry="12.6126" fill="black"/>
<ellipse cx="26.1272" cy="60.3514" rx="10.8108" ry="11.7117" fill="black"/>
<rect x="32.4316" y="32.4235" width="4.50451" height="41.4414" rx="2.25225" fill="black"/>
<rect x="64.8652" y="32.4235" width="3.6036" height="41.4414" rx="1.8018" fill="black"/>
<rect x="78.3789" y="32.4235" width="4.5045" height="41.4414" rx="2.25225" fill="black"/>
<path d="M81.082 54.9459L67.5685 59.6272L67.5685 50.2647L81.082 54.9459Z" fill="black"/>
<ellipse cx="23.8736" cy="61.2522" rx="13.0631" ry="12.6126" fill="black"/>
<ellipse cx="26.1272" cy="60.3514" rx="10.8108" ry="11.7117" fill="#F4F0F5"/>
<rect x="32.4316" y="32.4235" width="4.50451" height="41.4414" rx="2.25225" fill="black"/>
<rect x="64.8652" y="32.4235" width="3.6036" height="41.4414" rx="1.8018" fill="black"/>
<rect x="78.3789" y="32.4235" width="4.5045" height="41.4414" rx="2.25225" fill="black"/>
<path d="M81.082 54.9459L67.5685 59.6272L67.5685 50.2647L81.082 54.9459Z" fill="black"/>
<path d="M33.76 87.232C33.76 87.016 33.706 86.818 33.598 86.638C33.502 86.458 33.364 86.302 33.184 86.17C33.016 86.038 32.824 85.936 32.608 85.864C32.392 85.78 32.176 85.738 31.96 85.738C31.852 85.738 31.708 85.756 31.528 85.792C31.36 85.828 31.186 85.876 31.006 85.936C30.826 85.996 30.652 86.062 30.484 86.134C30.328 86.206 30.196 86.284 30.088 86.368V94H29.17V85.864L28.774 85.468L29.422 84.838L29.962 85.396C30.274 85.228 30.586 85.09 30.898 84.982C31.222 84.874 31.534 84.82 31.834 84.82C32.374 84.82 32.872 84.934 33.328 85.162C33.784 85.39 34.102 85.744 34.282 86.224C34.45 85.936 34.642 85.702 34.858 85.522C35.074 85.342 35.296 85.204 35.524 85.108C35.764 85 35.998 84.928 36.226 84.892C36.466 84.844 36.694 84.82 36.91 84.82C37.342 84.82 37.708 84.898 38.008 85.054C38.32 85.21 38.572 85.414 38.764 85.666C38.956 85.906 39.094 86.176 39.178 86.476C39.262 86.764 39.304 87.052 39.304 87.34V94H38.368V87.466C38.368 87.238 38.338 87.022 38.278 86.818C38.23 86.614 38.146 86.434 38.026 86.278C37.918 86.122 37.762 85.996 37.558 85.9C37.366 85.804 37.126 85.756 36.838 85.756C36.082 85.756 35.536 85.972 35.2 86.404C34.864 86.824 34.696 87.418 34.696 88.186V94H33.76V87.232ZM45.7022 89.626C45.7022 89.614 45.6482 89.578 45.5402 89.518C45.4322 89.446 45.2822 89.374 45.0902 89.302C44.9102 89.218 44.6942 89.146 44.4422 89.086C44.1902 89.014 43.9262 88.978 43.6502 88.978C43.4462 88.978 43.2482 89.02 43.0562 89.104C42.8762 89.188 42.7202 89.302 42.5882 89.446C42.4562 89.59 42.3482 89.758 42.2642 89.95C42.1922 90.13 42.1562 90.328 42.1562 90.544V91.678C42.1562 91.894 42.1922 92.098 42.2642 92.29C42.3482 92.47 42.4562 92.632 42.5882 92.776C42.7202 92.908 42.8762 93.016 43.0562 93.1C43.2362 93.184 43.4282 93.226 43.6322 93.226C43.8122 93.226 44.0162 93.196 44.2442 93.136C44.4842 93.064 44.7122 92.986 44.9282 92.902C45.1802 92.806 45.4382 92.698 45.7022 92.578V89.626ZM46.6202 93.118L46.9622 93.442L46.3142 94.09L45.8282 93.604C45.4442 93.82 45.0422 93.97 44.6222 94.054C44.2142 94.138 43.8902 94.18 43.6502 94.18C43.3142 94.18 42.9962 94.114 42.6962 93.982C42.4082 93.838 42.1562 93.652 41.9402 93.424C41.7242 93.184 41.5562 92.908 41.4362 92.596C41.3162 92.284 41.2562 91.954 41.2562 91.606V90.598C41.2562 90.25 41.3162 89.926 41.4362 89.626C41.5562 89.314 41.7242 89.044 41.9402 88.816C42.1562 88.588 42.4082 88.408 42.6962 88.276C42.9962 88.144 43.3142 88.078 43.6502 88.078C43.7342 88.078 43.8602 88.084 44.0282 88.096C44.2082 88.108 44.3942 88.132 44.5862 88.168C44.7902 88.204 44.9942 88.258 45.1982 88.33C45.4022 88.39 45.5762 88.474 45.7202 88.582V87.97C45.7202 87.694 45.6662 87.424 45.5582 87.16C45.4622 86.884 45.3302 86.638 45.1622 86.422C44.9942 86.206 44.7962 86.032 44.5682 85.9C44.3402 85.768 44.0942 85.702 43.8302 85.702C43.7342 85.702 43.5602 85.732 43.3082 85.792C43.0682 85.852 42.8162 85.912 42.5522 85.972C42.2402 86.044 41.9042 86.128 41.5442 86.224L41.2922 85.378C41.6882 85.282 42.0542 85.192 42.3902 85.108C42.6782 85.036 42.9602 84.97 43.2362 84.91C43.5122 84.85 43.7102 84.82 43.8302 84.82C44.2142 84.82 44.5742 84.91 44.9102 85.09C45.2462 85.27 45.5402 85.51 45.7922 85.81C46.0442 86.098 46.2422 86.434 46.3862 86.818C46.5302 87.19 46.6022 87.574 46.6022 87.97L46.6202 93.118ZM53.4839 85.54L52.9799 86.296C52.7759 86.176 52.6079 86.086 52.4759 86.026C52.3439 85.954 52.2179 85.9 52.0979 85.864C51.9899 85.828 51.8819 85.81 51.7739 85.81C51.6779 85.798 51.5699 85.792 51.4499 85.792C51.2699 85.792 51.0239 85.846 50.7119 85.954C50.3999 86.05 50.0879 86.242 49.7759 86.53V93.982H48.8759V86.026L48.4079 85.558L49.0379 84.91L49.6679 85.522C50.0159 85.21 50.3459 85.018 50.6579 84.946C50.9819 84.862 51.2579 84.82 51.4859 84.82C51.7259 84.82 51.9899 84.868 52.2779 84.964C52.5659 85.06 52.9679 85.252 53.4839 85.54ZM58.2013 94L56.2753 89.698H55.6813V94H54.7633V81.4H55.6813V88.6H56.2573L58.1833 85.018H59.2093L56.9953 89.176L59.2273 94H58.2013ZM63.5324 89.662H63.5684C63.7844 89.662 63.9824 89.62 64.1624 89.536C64.3424 89.44 64.4984 89.32 64.6304 89.176C64.7624 89.02 64.8644 88.846 64.9364 88.654C65.0204 88.462 65.0624 88.258 65.0624 88.042V87.286C65.0624 86.998 65.0084 86.758 64.9004 86.566C64.7924 86.362 64.6484 86.2 64.4684 86.08C64.3004 85.96 64.0964 85.876 63.8564 85.828C63.6284 85.768 63.3884 85.738 63.1364 85.738C62.9084 85.738 62.6864 85.774 62.4704 85.846C62.2664 85.918 62.0864 86.02 61.9304 86.152C61.7744 86.284 61.6484 86.446 61.5524 86.638C61.4564 86.83 61.4084 87.046 61.4084 87.286V89.644L63.5324 89.662ZM60.4724 87.376C60.4724 87.016 60.5324 86.68 60.6524 86.368C60.7844 86.056 60.9584 85.786 61.1744 85.558C61.4024 85.33 61.6604 85.15 61.9484 85.018C62.2484 84.886 62.5724 84.82 62.9204 84.82H63.5324C63.8684 84.82 64.1864 84.886 64.4864 85.018C64.7864 85.15 65.0504 85.33 65.2784 85.558C65.5064 85.786 65.6804 86.056 65.8004 86.368C65.9324 86.68 65.9984 87.016 65.9984 87.376V87.97C65.9984 88.474 65.9084 88.9 65.7284 89.248C65.5484 89.584 65.3024 89.86 64.9904 90.076C64.6784 90.292 64.3124 90.448 63.8924 90.544C63.4844 90.628 63.0464 90.67 62.5784 90.67C62.3864 90.67 62.1944 90.664 62.0024 90.652C61.8104 90.64 61.6124 90.622 61.4084 90.598V91.678C61.4924 92.158 61.7144 92.542 62.0744 92.83C62.4464 93.106 62.8664 93.244 63.3344 93.244C63.3824 93.244 63.5324 93.22 63.7844 93.172C64.0484 93.112 64.3244 93.052 64.6124 92.992C64.9484 92.92 65.3204 92.836 65.7284 92.74L65.9444 93.694C65.5004 93.79 65.0984 93.868 64.7384 93.928C64.4264 93.988 64.1264 94.042 63.8384 94.09C63.5624 94.138 63.3944 94.162 63.3344 94.162C62.9504 94.162 62.5844 94.096 62.2364 93.964C61.8884 93.82 61.5824 93.622 61.3184 93.37C61.0544 93.118 60.8444 92.824 60.6884 92.488C60.5444 92.14 60.4724 91.762 60.4724 91.354V87.376ZM68.6845 91.66V85.882H67.1545V84.982H68.6845V81.4H69.6385V84.982H71.2945V85.882H69.6385V91.75C69.6385 92.242 69.7585 92.584 69.9985 92.776C70.2505 92.956 70.5505 93.046 70.8985 93.046H71.2945V94.018H70.8085C70.5085 94.018 70.2265 93.976 69.9625 93.892C69.7105 93.796 69.4885 93.658 69.2965 93.478C69.1045 93.286 68.9545 93.04 68.8465 92.74C68.7385 92.44 68.6845 92.08 68.6845 91.66Z" fill="black"/>
<path d="M118.208 9.592C119.552 9.03733 120.661 8.68533 121.536 8.536C122.411 8.36533 122.997 8.28 123.296 8.28C124.149 8.28 124.928 8.46133 125.632 8.824C126.357 9.16533 126.987 9.64533 127.52 10.264C128.053 10.8613 128.469 11.5547 128.768 12.344C129.067 13.1333 129.216 13.976 129.216 14.872V24.984C129.216 25.88 129.045 26.7227 128.704 27.512C128.363 28.28 127.904 28.952 127.328 29.528C126.752 30.0827 126.08 30.52 125.312 30.84C124.565 31.16 123.776 31.32 122.944 31.32C122.773 31.32 122.571 31.3093 122.336 31.288C122.101 31.2667 121.792 31.2133 121.408 31.128C121.045 31.064 120.597 30.9573 120.064 30.808C119.552 30.6373 118.933 30.4027 118.208 30.104V9.592ZM126.88 14.872C126.88 13.976 126.677 13.1973 126.272 12.536C125.867 11.8533 125.429 11.352 124.96 11.032C124.725 10.8613 124.448 10.744 124.128 10.68C123.808 10.5947 123.531 10.552 123.296 10.552C122.848 10.552 122.357 10.648 121.824 10.84C121.312 11.0107 120.832 11.192 120.384 11.384V28.376C121.131 28.6747 121.707 28.856 122.112 28.92C122.539 28.984 122.859 29.016 123.072 29.016H123.2C123.691 29.016 124.16 28.8987 124.608 28.664C125.056 28.4293 125.451 28.1093 125.792 27.704C126.155 27.2987 126.432 26.84 126.624 26.328C126.837 25.816 126.944 25.272 126.944 24.696L126.88 14.872ZM133.202 8.76H135.314V11.64H133.202V8.76ZM133.202 15H135.314V31H133.202V15ZM146.689 17.688C145.879 17.2613 145.207 16.9947 144.673 16.888C144.14 16.7813 143.692 16.728 143.329 16.728C142.689 16.728 142.135 16.9733 141.665 17.464C141.217 17.9333 140.993 18.4987 140.993 19.16V26.776C140.993 27.4587 141.217 28.0453 141.665 28.536C142.135 29.0267 142.7 29.272 143.361 29.272C143.532 29.272 143.703 29.272 143.873 29.272C144.044 29.2507 144.247 29.208 144.481 29.144C144.737 29.08 145.036 28.984 145.377 28.856C145.74 28.728 146.177 28.536 146.689 28.28V17.688ZM148.705 34.424C148.705 35.2347 148.567 35.928 148.289 36.504C148.033 37.1013 147.671 37.5813 147.201 37.944C146.732 38.328 146.188 38.6053 145.569 38.776C144.972 38.968 144.321 39.064 143.617 39.064C143.276 39.064 142.839 39.0107 142.305 38.904C141.772 38.7973 141.26 38.68 140.769 38.552C140.172 38.4027 139.553 38.2213 138.913 38.008L139.489 36.12C140.108 36.312 140.695 36.4827 141.249 36.632C141.719 36.76 142.177 36.8773 142.625 36.984C143.073 37.0907 143.404 37.144 143.617 37.144C144.449 37.144 145.175 36.92 145.793 36.472C146.412 36.024 146.721 35.352 146.721 34.456V30.616C146.039 30.9573 145.452 31.1493 144.961 31.192C144.471 31.256 144.044 31.288 143.681 31.288H143.361C142.743 31.288 142.167 31.1707 141.633 30.936C141.121 30.68 140.663 30.3493 140.257 29.944C139.852 29.5173 139.532 29.0267 139.297 28.472C139.084 27.9173 138.977 27.32 138.977 26.68V19.288C138.977 18.648 139.084 18.0507 139.297 17.496C139.532 16.9413 139.852 16.4613 140.257 16.056C140.663 15.6293 141.121 15.2987 141.633 15.064C142.167 14.808 142.743 14.68 143.361 14.68C143.831 14.68 144.375 14.7547 144.993 14.904C145.633 15.0533 146.316 15.2773 147.041 15.576L148.033 14.584L149.473 16.024L148.705 16.76V34.424ZM152.64 8.76H154.752V11.64H152.64V8.76ZM152.64 15H154.752V31H152.64V15ZM159.951 16.952H157.295V14.968H159.951V8.76H162.031V14.968H164.879V16.952H162.031V26.904C162.031 27.672 162.223 28.2053 162.607 28.504C162.991 28.7813 163.449 28.92 163.983 28.92H164.879V31.032H163.823C162.735 31.032 161.817 30.7013 161.071 30.04C160.324 29.3573 159.951 28.2587 159.951 26.744V16.952ZM174.651 23.224C174.651 23.2027 174.555 23.1493 174.363 23.064C174.192 22.9573 173.957 22.8507 173.659 22.744C173.36 22.6373 173.008 22.5413 172.603 22.456C172.197 22.3707 171.771 22.328 171.323 22.328C170.661 22.328 170.096 22.5733 169.627 23.064C169.179 23.5547 168.955 24.1307 168.955 24.792V26.776C168.955 27.4587 169.179 28.0453 169.627 28.536C170.096 29.0053 170.651 29.24 171.291 29.24C171.525 29.24 171.835 29.1867 172.219 29.08C172.603 28.9733 172.976 28.856 173.339 28.728C173.744 28.5787 174.181 28.3973 174.651 28.184V23.224ZM176.667 29.176L177.371 29.816L175.931 31.256L175.067 30.392C174.405 30.712 173.712 30.9467 172.987 31.096C172.261 31.2453 171.707 31.32 171.323 31.32C170.704 31.32 170.128 31.2027 169.595 30.968C169.061 30.712 168.603 30.3707 168.219 29.944C167.835 29.5173 167.525 29.0267 167.291 28.472C167.077 27.896 166.971 27.288 166.971 26.648V24.888C166.971 24.2693 167.077 23.6827 167.291 23.128C167.525 22.5733 167.835 22.0933 168.219 21.688C168.603 21.2613 169.061 20.9307 169.595 20.696C170.128 20.44 170.704 20.312 171.323 20.312C171.451 20.312 171.643 20.3227 171.899 20.344C172.176 20.344 172.475 20.376 172.795 20.44C173.115 20.4827 173.435 20.5573 173.755 20.664C174.096 20.7493 174.405 20.8667 174.683 21.016V20.344C174.683 19.896 174.597 19.448 174.427 19C174.277 18.552 174.064 18.1573 173.786 17.816C173.509 17.4747 173.179 17.1973 172.795 16.984C172.432 16.7707 172.048 16.664 171.643 16.664C171.493 16.664 171.195 16.7173 170.747 16.824C170.32 16.9307 169.861 17.0373 169.371 17.144C168.816 17.2933 168.197 17.4533 167.515 17.624L166.971 15.704C167.675 15.512 168.336 15.3413 168.955 15.192C169.488 15.064 170.011 14.9467 170.523 14.84C171.035 14.7333 171.408 14.68 171.643 14.68C172.325 14.68 172.965 14.84 173.562 15.16C174.181 15.48 174.715 15.9067 175.163 16.44C175.611 16.9733 175.963 17.5813 176.219 18.264C176.496 18.9253 176.635 19.6187 176.635 20.344L176.667 29.176ZM180.613 8.76H182.661V26.84C182.661 27.608 182.853 28.1413 183.237 28.44C183.621 28.7173 184.079 28.856 184.613 28.856H185.253V30.968H184.453C183.365 30.968 182.447 30.6373 181.701 29.976C180.975 29.2933 180.613 28.1947 180.613 26.68V8.76ZM120.64 47.6V57.552H127.84V47.6H130.08V69.968H127.84V59.824H120.64V69.968H118.432V47.6H120.64ZM142.292 58.544C142.292 57.904 142.175 57.4027 141.94 57.04C141.727 56.656 141.449 56.368 141.108 56.176C140.788 55.9627 140.447 55.824 140.084 55.76C139.743 55.696 139.444 55.664 139.188 55.664C138.932 55.664 138.623 55.696 138.26 55.76C137.897 55.824 137.545 55.9627 137.204 56.176C136.884 56.368 136.607 56.656 136.372 57.04C136.137 57.4027 136.02 57.904 136.02 58.544V65.296C136.02 65.936 136.137 66.448 136.372 66.832C136.607 67.216 136.884 67.5147 137.204 67.728C137.545 67.92 137.897 68.0587 138.26 68.144C138.623 68.208 138.932 68.24 139.188 68.24C139.444 68.24 139.743 68.208 140.084 68.144C140.447 68.0587 140.788 67.92 141.108 67.728C141.449 67.5147 141.727 67.216 141.94 66.832C142.175 66.448 142.292 65.936 142.292 65.296V58.544ZM144.148 65.52C144.148 66.5227 143.967 67.3333 143.604 67.952C143.241 68.5493 142.793 69.0187 142.26 69.36C141.748 69.7013 141.204 69.9253 140.628 70.032C140.073 70.1387 139.593 70.192 139.188 70.192C138.783 70.192 138.292 70.1387 137.716 70.032C137.14 69.9253 136.585 69.7013 136.052 69.36C135.54 69.0187 135.103 68.5493 134.74 67.952C134.377 67.3333 134.196 66.5227 134.196 65.52V58.32C134.196 57.3173 134.377 56.5173 134.74 55.92C135.103 55.3013 135.54 54.832 136.052 54.512C136.585 54.1707 137.14 53.9467 137.716 53.84C138.292 53.7333 138.783 53.68 139.188 53.68C139.593 53.68 140.073 53.7333 140.628 53.84C141.204 53.9467 141.748 54.1707 142.26 54.512C142.793 54.832 143.241 55.3013 143.604 55.92C143.967 56.5173 144.148 57.3173 144.148 58.32V65.52ZM148.212 67.568C147.934 67.0133 147.774 66.4693 147.732 65.936C147.689 65.4027 147.668 64.848 147.668 64.272V54H149.716V65.232C149.716 66.2133 149.982 66.9707 150.516 67.504C151.049 68.016 151.636 68.272 152.276 68.272C152.894 68.272 153.513 68.1653 154.132 67.952C154.772 67.7173 155.273 67.4827 155.636 67.248V54H157.652V68.144L158.452 68.88L157.012 70.32L156.052 69.36C155.454 69.6587 154.814 69.8827 154.132 70.032C153.449 70.1813 152.841 70.256 152.308 70.256C151.518 70.256 150.74 70.0533 149.972 69.648C149.225 69.2427 148.638 68.5493 148.212 67.568ZM170.41 65.488C170.41 67.088 170.004 68.2933 169.194 69.104C168.404 69.9147 167.37 70.32 166.09 70.32C165.706 70.32 165.311 70.2773 164.906 70.192C164.5 70.128 164.084 70.0107 163.658 69.84L160.906 68.752L161.674 66.992L164.458 68.112C164.735 68.2187 165.012 68.2933 165.29 68.336C165.588 68.3787 165.866 68.4 166.122 68.4C166.783 68.4 167.338 68.144 167.786 67.632C168.255 67.0987 168.49 66.3413 168.49 65.36C168.49 64.9547 168.404 64.6133 168.234 64.336C168.084 64.0373 167.882 63.8027 167.626 63.632C167.391 63.4613 167.124 63.3333 166.826 63.248C166.548 63.1627 166.282 63.12 166.026 63.12C165.258 63.12 164.554 63.0453 163.914 62.896C163.295 62.7467 162.762 62.5013 162.314 62.16C161.866 61.7973 161.524 61.328 161.29 60.752C161.055 60.1547 160.938 59.408 160.938 58.512C160.938 57.7227 161.055 57.0293 161.29 56.432C161.524 55.8133 161.834 55.3013 162.218 54.896C162.623 54.4907 163.092 54.192 163.626 54C164.18 53.7867 164.778 53.68 165.418 53.68C165.802 53.68 166.186 53.7333 166.57 53.84C166.954 53.9253 167.359 54.0427 167.786 54.192L169.034 54.64L168.234 56.4C167.679 56.208 167.242 56.0587 166.922 55.952C166.623 55.8453 166.378 55.7707 166.186 55.728C166.015 55.6853 165.887 55.664 165.802 55.664C165.716 55.6427 165.631 55.632 165.546 55.632H165.386C164.724 55.632 164.138 55.8987 163.626 56.432C163.114 56.9653 162.858 57.712 162.858 58.672C162.858 59.0773 162.943 59.44 163.114 59.76C163.306 60.0587 163.53 60.3147 163.786 60.528C164.042 60.7413 164.319 60.9013 164.618 61.008C164.938 61.1147 165.226 61.168 165.482 61.168C166.164 61.168 166.804 61.232 167.402 61.36C167.999 61.4667 168.522 61.68 168.97 62C169.418 62.32 169.77 62.7573 170.026 63.312C170.282 63.8667 170.41 64.592 170.41 65.488ZM178.42 62.064C179.082 62.064 179.636 61.808 180.084 61.296C180.554 60.7627 180.788 60.1547 180.788 59.472V58.16C180.788 57.712 180.703 57.3387 180.532 57.04C180.362 56.72 180.127 56.464 179.828 56.272C179.551 56.08 179.22 55.9413 178.836 55.856C178.452 55.7707 178.058 55.728 177.652 55.728C176.927 55.728 176.287 55.952 175.732 56.4C175.178 56.8267 174.9 57.4133 174.9 58.16V62.032L178.42 62.064ZM172.82 58.32C172.82 57.68 172.938 57.0827 173.172 56.528C173.407 55.952 173.727 55.4613 174.132 55.056C174.538 54.6293 175.007 54.2987 175.54 54.064C176.095 53.808 176.682 53.68 177.3 53.68H178.356C178.975 53.68 179.551 53.7973 180.084 54.032C180.639 54.2667 181.119 54.5973 181.524 55.024C181.93 55.4293 182.25 55.92 182.484 56.496C182.719 57.0507 182.836 57.6587 182.836 58.32V59.344C182.836 60.2613 182.676 61.0293 182.356 61.648C182.036 62.2667 181.588 62.768 181.012 63.152C180.458 63.536 179.807 63.8133 179.06 63.984C178.314 64.1547 177.524 64.24 176.692 64.24C176.095 64.24 175.498 64.208 174.9 64.144V65.744C175.05 66.4907 175.412 67.0987 175.988 67.568C176.586 68.0373 177.258 68.272 178.004 68.272C178.047 68.272 178.292 68.2293 178.74 68.144C179.21 68.0373 179.711 67.92 180.244 67.792C180.863 67.664 181.546 67.504 182.292 67.312L182.804 69.424C181.994 69.5947 181.247 69.744 180.564 69.872C179.988 69.9787 179.444 70.0747 178.932 70.16C178.42 70.2453 178.111 70.288 178.004 70.288C177.3 70.288 176.628 70.16 175.988 69.904C175.37 69.648 174.826 69.296 174.356 68.848C173.887 68.4 173.514 67.8667 173.236 67.248C172.959 66.6293 172.82 65.9467 172.82 65.2V58.32ZM193.915 70V58.192C193.915 57.5093 193.68 56.9333 193.211 56.464C192.741 55.9733 192.187 55.728 191.547 55.728C191.184 55.728 190.683 55.792 190.043 55.92C189.403 56.048 188.784 56.3147 188.187 56.72V70H186.171V47.76H188.187V54.448C188.997 54.0213 189.669 53.7867 190.203 53.744C190.757 53.7013 191.205 53.68 191.547 53.68C192.144 53.68 192.709 53.808 193.243 54.064C193.776 54.2987 194.235 54.6293 194.619 55.056C195.024 55.4613 195.333 55.9413 195.547 56.496C195.781 57.0507 195.899 57.648 195.899 58.288V70H193.915ZM207.542 58.544C207.542 57.904 207.425 57.4027 207.19 57.04C206.977 56.656 206.699 56.368 206.358 56.176C206.038 55.9627 205.697 55.824 205.334 55.76C204.993 55.696 204.694 55.664 204.438 55.664C204.182 55.664 203.873 55.696 203.51 55.76C203.147 55.824 202.795 55.9627 202.454 56.176C202.134 56.368 201.857 56.656 201.622 57.04C201.387 57.4027 201.27 57.904 201.27 58.544V65.296C201.27 65.936 201.387 66.448 201.622 66.832C201.857 67.216 202.134 67.5147 202.454 67.728C202.795 67.92 203.147 68.0587 203.51 68.144C203.873 68.208 204.182 68.24 204.438 68.24C204.694 68.24 204.993 68.208 205.334 68.144C205.697 68.0587 206.038 67.92 206.358 67.728C206.699 67.5147 206.977 67.216 207.19 66.832C207.425 66.448 207.542 65.936 207.542 65.296V58.544ZM209.398 65.52C209.398 66.5227 209.217 67.3333 208.854 67.952C208.491 68.5493 208.043 69.0187 207.51 69.36C206.998 69.7013 206.454 69.9253 205.878 70.032C205.323 70.1387 204.843 70.192 204.438 70.192C204.033 70.192 203.542 70.1387 202.966 70.032C202.39 69.9253 201.835 69.7013 201.302 69.36C200.79 69.0187 200.353 68.5493 199.99 67.952C199.627 67.3333 199.446 66.5227 199.446 65.52V58.32C199.446 57.3173 199.627 56.5173 199.99 55.92C200.353 55.3013 200.79 54.832 201.302 54.512C201.835 54.1707 202.39 53.9467 202.966 53.84C203.542 53.7333 204.033 53.68 204.438 53.68C204.843 53.68 205.323 53.7333 205.878 53.84C206.454 53.9467 206.998 54.1707 207.51 54.512C208.043 54.832 208.491 55.3013 208.854 55.92C209.217 56.5173 209.398 57.3173 209.398 58.32V65.52ZM213.238 47.76H215.286V65.84C215.286 66.608 215.478 67.1413 215.862 67.44C216.246 67.7173 216.704 67.856 217.238 67.856H217.878V69.968H217.078C215.99 69.968 215.072 69.6373 214.326 68.976C213.6 68.2933 213.238 67.1947 213.238 65.68V47.76ZM227.407 56.752C226.767 56.368 226.127 56.1013 225.487 55.952C224.868 55.8027 224.399 55.728 224.079 55.728C223.417 55.728 222.852 55.9733 222.383 56.464C221.935 56.9547 221.711 57.5413 221.711 58.224V65.808C221.711 66.4907 221.935 67.0773 222.383 67.568C222.852 68.0373 223.407 68.272 224.047 68.272C224.239 68.272 224.495 68.2507 224.815 68.208C225.156 68.144 225.497 68.0693 225.839 67.984C226.201 67.8987 226.521 67.8027 226.799 67.696C227.097 67.568 227.3 67.4293 227.407 67.28V56.752ZM227.439 47.792H229.423V68.208L230.223 68.976L228.783 70.384L227.823 69.424C227.183 69.744 226.5 69.968 225.775 70.096C225.071 70.224 224.505 70.288 224.079 70.288C223.46 70.288 222.884 70.1707 222.351 69.936C221.839 69.7013 221.38 69.3813 220.975 68.976C220.591 68.5493 220.281 68.0587 220.047 67.504C219.833 66.928 219.727 66.32 219.727 65.68V58.32C219.727 57.68 219.833 57.0827 220.047 56.528C220.281 55.9733 220.591 55.4933 220.975 55.088C221.38 54.6613 221.839 54.3307 222.351 54.096C222.884 53.84 223.46 53.712 224.079 53.712C224.399 53.712 224.847 53.7547 225.423 53.84C226.02 53.904 226.692 54.1173 227.439 54.48V47.792ZM125.792 100.232L129.952 86.6H133.056V109H130.944V90.728H130.912L127.232 102.536H124.192L120.544 90.792V109H118.432V86.6H121.568L125.664 100.232H125.792ZM144.588 101.224C144.588 101.203 144.492 101.149 144.3 101.064C144.129 100.957 143.895 100.851 143.596 100.744C143.297 100.637 142.945 100.541 142.54 100.456C142.135 100.371 141.708 100.328 141.26 100.328C140.599 100.328 140.033 100.573 139.564 101.064C139.116 101.555 138.892 102.131 138.892 102.792V104.776C138.892 105.459 139.116 106.045 139.564 106.536C140.033 107.005 140.588 107.24 141.228 107.24C141.463 107.24 141.772 107.187 142.156 107.08C142.54 106.973 142.913 106.856 143.276 106.728C143.681 106.579 144.119 106.397 144.588 106.184V101.224ZM146.604 107.176L147.308 107.816L145.868 109.256L145.004 108.392C144.343 108.712 143.649 108.947 142.924 109.096C142.199 109.245 141.644 109.32 141.26 109.32C140.641 109.32 140.065 109.203 139.532 108.968C138.999 108.712 138.54 108.371 138.156 107.944C137.772 107.517 137.463 107.027 137.228 106.472C137.015 105.896 136.908 105.288 136.908 104.648V102.888C136.908 102.269 137.015 101.683 137.228 101.128C137.463 100.573 137.772 100.093 138.156 99.688C138.54 99.2613 138.999 98.9307 139.532 98.696C140.065 98.44 140.641 98.312 141.26 98.312C141.388 98.312 141.58 98.3227 141.836 98.344C142.113 98.344 142.412 98.376 142.732 98.44C143.052 98.4827 143.372 98.5573 143.692 98.664C144.033 98.7493 144.343 98.8667 144.62 99.016V98.344C144.62 97.896 144.535 97.448 144.364 97C144.215 96.552 144.001 96.1573 143.724 95.816C143.447 95.4747 143.116 95.1973 142.732 94.984C142.369 94.7707 141.985 94.664 141.58 94.664C141.431 94.664 141.132 94.7173 140.684 94.824C140.257 94.9307 139.799 95.0373 139.308 95.144C138.753 95.2933 138.135 95.4533 137.452 95.624L136.908 93.704C137.612 93.512 138.273 93.3413 138.892 93.192C139.425 93.064 139.948 92.9467 140.46 92.84C140.972 92.7333 141.345 92.68 141.58 92.68C142.263 92.68 142.903 92.84 143.5 93.16C144.119 93.48 144.652 93.9067 145.1 94.44C145.548 94.9733 145.9 95.5813 146.156 96.264C146.433 96.9253 146.572 97.6187 146.572 98.344L146.604 107.176ZM157.814 95.784C157.43 95.5493 157.11 95.368 156.854 95.24C156.62 95.0907 156.406 94.984 156.214 94.92C156.022 94.856 155.841 94.824 155.67 94.824C155.5 94.8027 155.318 94.792 155.126 94.792C154.828 94.792 154.433 94.8773 153.942 95.048C153.452 95.1973 152.95 95.496 152.438 95.944V108.968H150.454V95.08C150.326 94.952 150.166 94.8027 149.974 94.632C149.782 94.4613 149.633 94.312 149.526 94.184L150.934 92.744L152.022 93.8C152.641 93.3093 153.217 93 153.75 92.872C154.305 92.744 154.785 92.68 155.19 92.68C155.617 92.68 156.097 92.776 156.63 92.968C157.164 93.16 157.932 93.5333 158.934 94.088L157.814 95.784ZM166.999 109L163.671 101.576H162.999V109H160.983V86.76H162.999V99.24H163.639L166.967 93.032H169.207L165.271 100.424L169.239 109H166.999ZM176.858 101.064C177.519 101.064 178.074 100.808 178.522 100.296C178.991 99.7627 179.226 99.1547 179.226 98.472V97.16C179.226 96.712 179.14 96.3387 178.97 96.04C178.799 95.72 178.564 95.464 178.266 95.272C177.988 95.08 177.658 94.9413 177.274 94.856C176.89 94.7707 176.495 94.728 176.09 94.728C175.364 94.728 174.724 94.952 174.17 95.4C173.615 95.8267 173.338 96.4133 173.338 97.16V101.032L176.858 101.064ZM171.258 97.32C171.258 96.68 171.375 96.0827 171.61 95.528C171.844 94.952 172.164 94.4613 172.57 94.056C172.975 93.6293 173.444 93.2987 173.978 93.064C174.532 92.808 175.119 92.68 175.738 92.68H176.794C177.412 92.68 177.988 92.7973 178.522 93.032C179.076 93.2667 179.556 93.5973 179.962 94.024C180.367 94.4293 180.687 94.92 180.922 95.496C181.156 96.0507 181.274 96.6587 181.274 97.32V98.344C181.274 99.2613 181.114 100.029 180.794 100.648C180.474 101.267 180.026 101.768 179.45 102.152C178.895 102.536 178.244 102.813 177.498 102.984C176.751 103.155 175.962 103.24 175.13 103.24C174.532 103.24 173.935 103.208 173.338 103.144V104.744C173.487 105.491 173.85 106.099 174.426 106.568C175.023 107.037 175.695 107.272 176.442 107.272C176.484 107.272 176.73 107.229 177.178 107.144C177.647 107.037 178.148 106.92 178.682 106.792C179.3 106.664 179.983 106.504 180.73 106.312L181.242 108.424C180.431 108.595 179.684 108.744 179.002 108.872C178.426 108.979 177.882 109.075 177.37 109.16C176.858 109.245 176.548 109.288 176.442 109.288C175.738 109.288 175.066 109.16 174.426 108.904C173.807 108.648 173.263 108.296 172.794 107.848C172.324 107.4 171.951 106.867 171.674 106.248C171.396 105.629 171.258 104.947 171.258 104.2V97.32ZM185.888 94.952H183.232V92.968H185.888V86.76H187.968V92.968H190.816V94.952H187.968V104.904C187.968 105.672 188.16 106.205 188.544 106.504C188.928 106.781 189.387 106.92 189.92 106.92H190.816V109.032H189.76C188.672 109.032 187.755 108.701 187.008 108.04C186.262 107.357 185.888 106.259 185.888 104.744V94.952Z" fill="black"/>
</svg>
