<svg width="50" height="50" viewBox="0 0 50 50" fill="none" xmlns="http://www.w3.org/2000/svg">
<rect width="50" height="50" fill="white"/>
<circle cx="25" cy="25" r="24" stroke="black" stroke-width="2"/>
<path d="M23.8177 26.56C23.5111 26.7 23.2577 26.9033 23.0577 27.17C22.8644 27.43 22.7677 27.7033 22.7677 27.99C22.7677 28.27 22.8277 28.5133 22.9477 28.72C23.0677 28.9267 23.2177 29.08 23.3977 29.18C23.7377 29.38 24.0711 29.48 24.3977 29.48C25.0844 29.48 25.6577 29.2067 26.1177 28.66L23.8177 26.56ZM24.3577 30.12C23.5911 30.12 22.9777 29.94 22.5177 29.58C22.0577 29.22 21.8277 28.7 21.8277 28.02C21.8277 27.5667 21.9677 27.17 22.2477 26.83C22.5344 26.49 22.8644 26.2367 23.2377 26.07C22.9911 25.7967 22.8111 25.5433 22.6977 25.31C22.5911 25.0767 22.5377 24.7967 22.5377 24.47C22.5377 24.01 22.7111 23.63 23.0577 23.33C23.4111 23.03 23.8911 22.88 24.4977 22.88C24.8244 22.88 25.1377 22.95 25.4377 23.09C25.7444 23.23 25.9844 23.3833 26.1577 23.55L25.9877 24.54C25.9144 24.5667 25.8211 24.58 25.7077 24.58L25.5177 24.57L25.2677 23.54C25.0744 23.4867 24.8177 23.46 24.4977 23.46C24.1777 23.46 23.9377 23.56 23.7777 23.76C23.6177 23.96 23.5377 24.16 23.5377 24.36C23.5377 24.56 23.5777 24.7467 23.6577 24.92C23.7444 25.0933 23.8311 25.2333 23.9177 25.34C24.0111 25.44 24.1677 25.6 24.3877 25.82C24.5944 26.0333 25.2944 26.7967 26.4877 28.11C26.7411 27.6633 26.8677 26.99 26.8677 26.09C26.8677 25.8967 26.8611 25.74 26.8477 25.62L26.0077 25.54C26.0077 25.3533 26.0644 25.1533 26.1777 24.94H28.4777L28.5077 25.29C28.2011 25.3967 27.8944 25.4767 27.5877 25.53C27.5811 25.9167 27.5144 26.4233 27.3877 27.05C27.2677 27.6767 27.1044 28.15 26.8977 28.47L28.1877 29.89C28.0811 30.0833 27.9477 30.18 27.7877 30.18L26.4877 29.06C26.2411 29.34 25.9044 29.5867 25.4777 29.8C25.0577 30.0133 24.6844 30.12 24.3577 30.12Z" fill="black"/>
<ellipse cx="11.9378" cy="26.1261" rx="6.53153" ry="6.30631" fill="black"/>
<ellipse cx="13.0636" cy="25.6757" rx="5.40541" ry="5.85586" fill="black"/>
<rect x="16.2168" y="11.7117" width="2.25225" height="20.7207" rx="1.12613" fill="black"/>
<rect x="32.4316" y="11.7117" width="1.8018" height="20.7207" rx="0.9009" fill="black"/>
<rect x="39.1895" y="11.7117" width="2.25225" height="20.7207" rx="1.12613" fill="black"/>
<path d="M40.541 22.973L33.7843 25.3136L33.7843 20.6324L40.541 22.973Z" fill="black"/>
<ellipse cx="11.9378" cy="26.1261" rx="6.53153" ry="6.30631" fill="black"/>
<ellipse cx="13.0636" cy="25.6757" rx="5.40541" ry="5.85586" fill="white"/>
<rect x="16.2168" y="11.7117" width="2.25225" height="20.7207" rx="1.12613" fill="black"/>
<rect x="32.4316" y="11.7117" width="1.8018" height="20.7207" rx="0.9009" fill="black"/>
<rect x="39.1895" y="11.7117" width="2.25225" height="20.7207" rx="1.12613" fill="black"/>
<path d="M40.541 22.973L33.7843 25.3136L33.7843 20.6324L40.541 22.973Z" fill="black"/>
<path d="M16.88 39.616C16.88 39.508 16.853 39.409 16.799 39.319C16.751 39.229 16.682 39.151 16.592 39.085C16.508 39.019 16.412 38.968 16.304 38.932C16.196 38.89 16.088 38.869 15.98 38.869C15.926 38.869 15.854 38.878 15.764 38.896C15.68 38.914 15.593 38.938 15.503 38.968C15.413 38.998 15.326 39.031 15.242 39.067C15.164 39.103 15.098 39.142 15.044 39.184V43H14.585V38.932L14.387 38.734L14.711 38.419L14.981 38.698C15.137 38.614 15.293 38.545 15.449 38.491C15.611 38.437 15.767 38.41 15.917 38.41C16.187 38.41 16.436 38.467 16.664 38.581C16.892 38.695 17.051 38.872 17.141 39.112C17.225 38.968 17.321 38.851 17.429 38.761C17.537 38.671 17.648 38.602 17.762 38.554C17.882 38.5 17.999 38.464 18.113 38.446C18.233 38.422 18.347 38.41 18.455 38.41C18.671 38.41 18.854 38.449 19.004 38.527C19.16 38.605 19.286 38.707 19.382 38.833C19.478 38.953 19.547 39.088 19.589 39.238C19.631 39.382 19.652 39.526 19.652 39.67V43H19.184V39.733C19.184 39.619 19.169 39.511 19.139 39.409C19.115 39.307 19.073 39.217 19.013 39.139C18.959 39.061 18.881 38.998 18.779 38.95C18.683 38.902 18.563 38.878 18.419 38.878C18.041 38.878 17.768 38.986 17.6 39.202C17.432 39.412 17.348 39.709 17.348 40.093V43H16.88V39.616ZM22.8511 40.813C22.8511 40.807 22.8241 40.789 22.7701 40.759C22.7161 40.723 22.6411 40.687 22.5451 40.651C22.4551 40.609 22.3471 40.573 22.2211 40.543C22.0951 40.507 21.9631 40.489 21.8251 40.489C21.7231 40.489 21.6241 40.51 21.5281 40.552C21.4381 40.594 21.3601 40.651 21.2941 40.723C21.2281 40.795 21.1741 40.879 21.1321 40.975C21.0961 41.065 21.0781 41.164 21.0781 41.272V41.839C21.0781 41.947 21.0961 42.049 21.1321 42.145C21.1741 42.235 21.2281 42.316 21.2941 42.388C21.3601 42.454 21.4381 42.508 21.5281 42.55C21.6181 42.592 21.7141 42.613 21.8161 42.613C21.9061 42.613 22.0081 42.598 22.1221 42.568C22.2421 42.532 22.3561 42.493 22.4641 42.451C22.5901 42.403 22.7191 42.349 22.8511 42.289V40.813ZM23.3101 42.559L23.4811 42.721L23.1571 43.045L22.9141 42.802C22.7221 42.91 22.5211 42.985 22.3111 43.027C22.1071 43.069 21.9451 43.09 21.8251 43.09C21.6571 43.09 21.4981 43.057 21.3481 42.991C21.2041 42.919 21.0781 42.826 20.9701 42.712C20.8621 42.592 20.7781 42.454 20.7181 42.298C20.6581 42.142 20.6281 41.977 20.6281 41.803V41.299C20.6281 41.125 20.6581 40.963 20.7181 40.813C20.7781 40.657 20.8621 40.522 20.9701 40.408C21.0781 40.294 21.2041 40.204 21.3481 40.138C21.4981 40.072 21.6571 40.039 21.8251 40.039C21.8671 40.039 21.9301 40.042 22.0141 40.048C22.1041 40.054 22.1971 40.066 22.2931 40.084C22.3951 40.102 22.4971 40.129 22.5991 40.165C22.7011 40.195 22.7881 40.237 22.8601 40.291V39.985C22.8601 39.847 22.8331 39.712 22.7791 39.58C22.7311 39.442 22.6651 39.319 22.5811 39.211C22.4971 39.103 22.3981 39.016 22.2841 38.95C22.1701 38.884 22.0471 38.851 21.9151 38.851C21.8671 38.851 21.7801 38.866 21.6541 38.896C21.5341 38.926 21.4081 38.956 21.2761 38.986C21.1201 39.022 20.9521 39.064 20.7721 39.112L20.6461 38.689C20.8441 38.641 21.0271 38.596 21.1951 38.554C21.3391 38.518 21.4801 38.485 21.6181 38.455C21.7561 38.425 21.8551 38.41 21.9151 38.41C22.1071 38.41 22.2871 38.455 22.4551 38.545C22.6231 38.635 22.7701 38.755 22.8961 38.905C23.0221 39.049 23.1211 39.217 23.1931 39.409C23.2651 39.595 23.3011 39.787 23.3011 39.985L23.3101 42.559ZM26.742 38.77L26.49 39.148C26.388 39.088 26.304 39.043 26.238 39.013C26.172 38.977 26.109 38.95 26.049 38.932C25.995 38.914 25.941 38.905 25.887 38.905C25.839 38.899 25.785 38.896 25.725 38.896C25.635 38.896 25.512 38.923 25.356 38.977C25.2 39.025 25.044 39.121 24.888 39.265V42.991H24.438V39.013L24.204 38.779L24.519 38.455L24.834 38.761C25.008 38.605 25.173 38.509 25.329 38.473C25.491 38.431 25.629 38.41 25.743 38.41C25.863 38.41 25.995 38.434 26.139 38.482C26.283 38.53 26.484 38.626 26.742 38.77ZM29.1007 43L28.1377 40.849H27.8407V43H27.3817V36.7H27.8407V40.3H28.1287L29.0917 38.509H29.6047L28.4977 40.588L29.6137 43H29.1007ZM31.7662 40.831H31.7842C31.8922 40.831 31.9912 40.81 32.0812 40.768C32.1712 40.72 32.2492 40.66 32.3152 40.588C32.3812 40.51 32.4322 40.423 32.4682 40.327C32.5102 40.231 32.5312 40.129 32.5312 40.021V39.643C32.5312 39.499 32.5042 39.379 32.4502 39.283C32.3962 39.181 32.3242 39.1 32.2342 39.04C32.1502 38.98 32.0482 38.938 31.9282 38.914C31.8142 38.884 31.6942 38.869 31.5682 38.869C31.4542 38.869 31.3432 38.887 31.2352 38.923C31.1332 38.959 31.0432 39.01 30.9652 39.076C30.8872 39.142 30.8242 39.223 30.7762 39.319C30.7282 39.415 30.7042 39.523 30.7042 39.643V40.822L31.7662 40.831ZM30.2362 39.688C30.2362 39.508 30.2662 39.34 30.3262 39.184C30.3922 39.028 30.4792 38.893 30.5872 38.779C30.7012 38.665 30.8302 38.575 30.9742 38.509C31.1242 38.443 31.2862 38.41 31.4602 38.41H31.7662C31.9342 38.41 32.0932 38.443 32.2432 38.509C32.3932 38.575 32.5252 38.665 32.6392 38.779C32.7532 38.893 32.8402 39.028 32.9002 39.184C32.9662 39.34 32.9992 39.508 32.9992 39.688V39.985C32.9992 40.237 32.9542 40.45 32.8642 40.624C32.7742 40.792 32.6512 40.93 32.4952 41.038C32.3392 41.146 32.1562 41.224 31.9462 41.272C31.7422 41.314 31.5232 41.335 31.2892 41.335C31.1932 41.335 31.0972 41.332 31.0012 41.326C30.9052 41.32 30.8062 41.311 30.7042 41.299V41.839C30.7462 42.079 30.8572 42.271 31.0372 42.415C31.2232 42.553 31.4332 42.622 31.6672 42.622C31.6912 42.622 31.7662 42.61 31.8922 42.586C32.0242 42.556 32.1622 42.526 32.3062 42.496C32.4742 42.46 32.6602 42.418 32.8642 42.37L32.9722 42.847C32.7502 42.895 32.5492 42.934 32.3692 42.964C32.2132 42.994 32.0632 43.021 31.9192 43.045C31.7812 43.069 31.6972 43.081 31.6672 43.081C31.4752 43.081 31.2922 43.048 31.1182 42.982C30.9442 42.91 30.7912 42.811 30.6592 42.685C30.5272 42.559 30.4222 42.412 30.3442 42.244C30.2722 42.07 30.2362 41.881 30.2362 41.677V39.688ZM34.3423 41.83V38.941H33.5773V38.491H34.3423V36.7H34.8193V38.491H35.6473V38.941H34.8193V41.875C34.8193 42.121 34.8793 42.292 34.9993 42.388C35.1253 42.478 35.2753 42.523 35.4493 42.523H35.6473V43.009H35.4043C35.2543 43.009 35.1133 42.988 34.9813 42.946C34.8553 42.898 34.7443 42.829 34.6483 42.739C34.5523 42.643 34.4773 42.52 34.4233 42.37C34.3693 42.22 34.3423 42.04 34.3423 41.83Z" fill="black"/>
</svg>
