<svg width="16" height="17" viewBox="0 0 16 17" fill="none" xmlns="http://www.w3.org/2000/svg">
<path d="M6.9372 0.876024C3.11183 0.876024 0 3.83967 0 7.48288C0 11.1261 3.11183 14.0897 6.9372 14.0897C8.10661 14.0897 9.2562 13.8255 10.2274 13.3158C10.3052 13.4049 10.3915 13.4871 10.4851 13.5612L12.4671 15.4489C12.6501 15.645 12.8733 15.8034 13.123 15.9144C13.3726 16.0254 13.6434 16.0867 13.9188 16.0944C14.1942 16.1021 14.4683 16.0562 14.7244 15.9593C14.9805 15.8625 15.213 15.7168 15.4079 15.5313C15.6027 15.3458 15.7556 15.1243 15.8573 14.8804C15.959 14.6365 16.0072 14.3754 15.9991 14.1132C15.991 13.8509 15.9267 13.593 15.8101 13.3552C15.6936 13.1175 15.5272 12.9049 15.3213 12.7306L13.3392 10.8429C13.2427 10.7509 13.1364 10.6687 13.0221 10.5975C13.5573 9.67258 13.8942 8.5966 13.8942 7.464C13.8942 3.82079 10.7824 0.857147 6.95702 0.857147L6.9372 0.876024ZM6.9372 2.7637C9.69225 2.7637 11.8923 4.85901 11.8923 7.48288C11.8923 8.72874 11.4166 9.88022 10.5842 10.7297C10.5644 10.7485 10.5445 10.7674 10.5247 10.7863C10.4311 10.8604 10.3448 10.9425 10.267 11.0317C9.39495 11.7868 8.20571 12.2209 6.91738 12.2209C4.16232 12.2209 1.96224 10.1256 1.96224 7.50175C1.96224 4.87789 4.16232 2.78257 6.91738 2.78257L6.9372 2.7637Z" fill="black"/>
</svg>
