<svg width="24" height="24" viewBox="0 0 24 24" fill="none" xmlns="http://www.w3.org/2000/svg">
<path d="M12.1351 13.7079C12.1128 13.7079 12.0793 13.7079 12.057 13.7079C12.0235 13.7079 11.9788 13.7079 11.9453 13.7079C9.41135 13.6297 7.51367 11.6539 7.51367 9.22041C7.51367 6.74227 9.53414 4.7218 12.0123 4.7218C14.4904 4.7218 16.5109 6.74227 16.5109 9.22041C16.4998 11.6651 14.5909 13.6297 12.1686 13.7079C12.1463 13.7079 12.1463 13.7079 12.1351 13.7079ZM12.0011 6.38506C10.4384 6.38506 9.17693 7.65762 9.17693 9.20924C9.17693 10.7386 10.3714 11.9776 11.8895 12.0335C11.923 12.0223 12.0346 12.0223 12.1463 12.0335C13.6421 11.9553 14.8142 10.7274 14.8253 9.20924C14.8253 7.65762 13.5639 6.38506 12.0011 6.38506Z" fill="black"/>
<path d="M12.001 24.0002C8.99821 24.0002 6.12937 22.8839 3.90797 20.8523C3.70704 20.6737 3.61774 20.4058 3.64007 20.149C3.78518 18.8206 4.61123 17.5816 5.98425 16.6662C9.31077 14.456 14.7024 14.456 18.0177 16.6662C19.3908 17.5927 20.2168 18.8206 20.3619 20.149C20.3954 20.4169 20.2949 20.6737 20.094 20.8523C17.8726 22.8839 15.0038 24.0002 12.001 24.0002ZM5.39263 19.9258C7.24565 21.4774 9.57867 22.3258 12.001 22.3258C14.4233 22.3258 16.7563 21.4774 18.6094 19.9258C18.4084 19.2448 17.8726 18.5862 17.0801 18.0504C14.334 16.2197 9.67914 16.2197 6.91077 18.0504C6.11821 18.5862 5.59356 19.2448 5.39263 19.9258Z" fill="black"/>
<path d="M12 24C5.38047 24 0 18.6195 0 12C0 5.38047 5.38047 0 12 0C18.6195 0 24 5.38047 24 12C24 18.6195 18.6195 24 12 24ZM12 1.67442C6.30698 1.67442 1.67442 6.30698 1.67442 12C1.67442 17.693 6.30698 22.3256 12 22.3256C17.693 22.3256 22.3256 17.693 22.3256 12C22.3256 6.30698 17.693 1.67442 12 1.67442Z" fill="black"/>
</svg>
