<svg width="40" height="40" viewBox="0 0 40 40" fill="none" xmlns="http://www.w3.org/2000/svg">
<path d="M7.46875 24.336C8.46094 24.336 9.39063 24.336 10.3203 24.336C10.3281 24.297 10.3438 24.2501 10.3516 24.211C7.0625 23.172 5.26563 20.9767 5.03125 17.5392C6.04688 17.8204 7.00781 18.0939 7.96875 18.3595C7.98438 18.3204 8 18.2814 8.01563 18.2423C5.04688 15.7345 4.33594 12.7345 6 9.12511C9.74219 13.5079 14.3828 15.8985 20.0938 16.297C20.0547 15.9923 20.0234 15.7501 19.9922 15.5079C19.4063 10.672 24.0938 6.76573 28.7422 8.18761C29.8359 8.52354 30.7813 9.08604 31.6016 9.87511C31.6953 9.96886 31.8984 10.0235 32.0391 9.99229C33.3203 9.72667 34.5313 9.25792 35.6797 8.64073C35.7813 8.58604 35.8828 8.53917 36.0547 8.45323C35.8359 9.28136 35.4609 9.94542 34.9688 10.5157C34.4766 11.086 33.8984 11.586 33.3516 12.1251C34.5703 11.9845 35.75 11.6329 36.9063 11.1642C36.9297 11.1954 36.9609 11.2267 36.9844 11.2579C36.4297 11.8985 35.8984 12.5704 35.3125 13.1798C34.8672 13.6485 34.3281 14.0314 33.8516 14.4689C33.7422 14.5704 33.6484 14.7501 33.6563 14.8907C33.7266 18.922 32.6797 22.6407 30.5547 26.047C28.2969 29.6564 25.1875 32.2814 21.1719 33.7579C17.9453 34.9454 14.6172 35.2501 11.2188 34.7267C8.67188 34.336 6.28906 33.4689 4.09375 32.1017C4.03906 32.0704 3.99219 32.0314 3.94531 31.9532C5.71094 32.1095 7.44531 31.9454 9.14063 31.461C10.8281 30.9845 12.3672 30.2032 13.8203 29.0704C12.0156 28.961 10.5 28.3595 9.25 27.1564C8.44531 26.3985 7.85156 25.4923 7.46875 24.336Z" fill="black"/>
</svg>
